<?xml version="1.0" standalone="no"?><svg xmlns="http://www.w3.org/2000/svg" viewBox="0 0 1440 320"><path fill="#5dbecd" fill-opacity="1" d="M0,96L30,112C60,128,120,160,180,144C240,128,300,64,360,69.3C420,75,480,149,540,202.7C600,256,660,288,720,277.3C780,267,840,213,900,176C960,139,1020,117,1080,106.7C1140,96,1200,96,1260,112C1320,128,1380,160,1410,176L1440,192L1440,0L1410,0C1380,0,1320,0,1260,0C1200,0,1140,0,1080,0C1020,0,960,0,900,0C840,0,780,0,720,0C660,0,600,0,540,0C480,0,420,0,360,0C300,0,240,0,180,0C120,0,60,0,30,0L0,0Z"></path></svg>